<svg xmlns="http://www.w3.org/2000/svg" width="14" height="19" viewBox="0 0 14 19" fill="none">
  <path d="M1.5 2.22656V17.6266M12.5 4.78846V15.0647C12.5 16.2369 12.5 16.823 12.2597 17.1241C12.0507 17.3859 11.7338 17.5382 11.3988 17.5379C11.0136 17.5375 10.5559 17.1713 9.64054 16.439L4.93585 12.6752C3.76138 11.7356 3.17409 11.2659 2.96157 10.6983C2.77512 10.2007 2.77512 9.65244 2.96157 9.1548C3.17409 8.5872 3.76138 8.1175 4.93585 7.1779L9.64054 3.41413C10.5559 2.68182 11.0136 2.31566 11.3988 2.31526C11.7338 2.31489 12.0507 2.4672 12.2597 2.72901C12.5 3.03006 12.5 3.61619 12.5 4.78846Z" stroke="white" stroke-width="2.5" stroke-linecap="round" stroke-linejoin="round"/>
</svg>