<svg xmlns="http://www.w3.org/2000/svg" width="14" height="19" viewBox="0 0 14 19" fill="none">
  <path d="M12.5 2.22656V17.6266M1.5 4.78846V15.0647C1.5 16.2369 1.5 16.823 1.74031 17.1241C1.9493 17.3859 2.26619 17.5382 2.60119 17.5379C2.98637 17.5375 3.44407 17.1713 4.35946 16.439L9.06415 12.6752C10.2386 11.7356 10.8259 11.2659 11.0384 10.6983C11.2249 10.2007 11.2249 9.65244 11.0384 9.1548C10.8259 8.5872 10.2386 8.1175 9.06415 7.1779L4.35946 3.41413C3.44407 2.68182 2.98637 2.31566 2.60119 2.31526C2.26619 2.31489 1.9493 2.4672 1.74031 2.72901C1.5 3.03006 1.5 3.61619 1.5 4.78846Z" stroke="white" stroke-width="2.5" stroke-linecap="round" stroke-linejoin="round"/>
</svg>